<?xml version="1.0" encoding="UTF-8" standalone="no"?><!DOCTYPE svg PUBLIC "-//W3C//DTD SVG 1.1//EN" "http://www.w3.org/Graphics/SVG/1.1/DTD/svg11.dtd"><svg width="100%" height="100%" viewBox="0 0 32 32" version="1.1" xmlns="http://www.w3.org/2000/svg" xmlns:xlink="http://www.w3.org/1999/xlink" xml:space="preserve" xmlns:serif="http://www.serif.com/" style="fill-rule:evenodd;clip-rule:evenodd;stroke-linejoin:round;stroke-miterlimit:2;"><rect id="logo-2" x="0" y="0" width="32" height="32" style="fill:none;"/><g id="logo-21" serif:id="logo-2"><path d="M31.416,3.301c-0,-0.72 -0.286,-1.412 -0.796,-1.921c-0.509,-0.51 -1.201,-0.796 -1.921,-0.796l-25.398,0c-0.72,0 -1.412,0.286 -1.921,0.796c-0.51,0.509 -0.796,1.201 -0.796,1.921l0,25.398c0,0.72 0.286,1.412 0.796,1.921c0.509,0.51 1.201,0.796 1.921,0.796l25.398,-0c0.72,-0 1.412,-0.286 1.921,-0.796c0.51,-0.509 0.796,-1.201 0.796,-1.921l-0,-25.398Z" style="fill:#2c3035;"/><circle cx="26.103" cy="22.896" r="1.795" style="fill:#fff;"/><path d="M21.346,24.628l-8.622,-17.319l-8.622,17.382c-0,0 0.669,-0.01 1.477,-0.022c1.702,-0.025 3.248,-0.998 4.006,-2.522c1.294,-2.6 3.139,-6.31 3.139,-6.31c0,0 1.826,3.671 3.118,6.268c0.769,1.546 2.347,2.523 4.074,2.523l1.43,0Z" style="fill:#93e1d8;"/><path d="M18.024,13.986l5.539,9.015c0,-0 -0.031,-0.249 0.01,-0.603c0.032,-0.276 0.162,-0.79 0.269,-1.036c0.125,-0.287 0.174,-0.52 0.59,-1.046c0.28,-0.356 0.677,-0.62 1.227,-0.655c0.569,-0.036 1.045,0.492 1.045,0.492l-1.834,-2.975c-0,-0 2.54,-1.293 2.54,-3.615c0,-2.322 -0.405,-3.414 -0.405,-3.414c0,0 -0.979,-2.84 -3.898,-2.84l-7.205,-0l-0,0.757c-0,0.793 0.314,1.553 0.875,2.114c0.56,0.56 1.32,0.875 2.113,0.875c1.645,-0 3.356,-0 3.356,-0c-0,-0 1.404,0.063 1.404,1.5c0,1.437 -1.233,1.431 -1.233,1.431l-4.393,0Z" style="fill:#93e1d8;"/></g></svg>